<svg width="25" height="25" viewBox="0 0 25 25" fill="none" xmlns="http://www.w3.org/2000/svg">
<path d="M5.45628 14.1375L13.3219 22.2161C13.643 22.5459 13.7971 22.9306 13.7842 23.3702C13.7714 23.8099 13.6039 24.1946 13.2818 24.5243C12.9607 24.8266 12.5862 24.9848 12.1581 24.9991C11.7301 25.0134 11.3555 24.8551 11.0345 24.5243L0.439932 13.6429C0.279409 13.4781 0.165438 13.2994 0.0980178 13.1071C0.030598 12.9148 -0.00204153 12.7087 9.87841e-05 12.4888C0.00223909 12.269 0.0359485 12.0629 0.101228 11.8706C0.166507 11.6782 0.279945 11.4996 0.441538 11.3348L11.0361 0.45339C11.3304 0.151129 11.6985 0 12.1405 0C12.5824 0 12.9634 0.151129 13.2834 0.45339C13.6044 0.783128 13.765 1.17497 13.765 1.62891C13.765 2.08285 13.6044 2.47414 13.2834 2.80278L5.45628 10.8401H23.3948C23.8496 10.8401 24.2311 10.9984 24.5393 11.315C24.8475 11.6315 25.0011 12.0228 25 12.4888C24.9989 12.9549 24.8448 13.3467 24.5377 13.6644C24.2306 13.982 23.8496 14.1397 23.3948 14.1375H5.45628Z" fill="white" fill-opacity="0.7"/>
</svg>
