<svg width="25" height="25" viewBox="0 0 25 25" fill="none" xmlns="http://www.w3.org/2000/svg">
<path d="M19.5437 14.1375L11.6781 22.2161C11.357 22.5459 11.2029 22.9306 11.2158 23.3702C11.2286 23.8099 11.3961 24.1946 11.7182 24.5243C12.0393 24.8266 12.4138 24.9848 12.8419 24.9991C13.2699 25.0134 13.6445 24.8551 13.9655 24.5243L24.5601 13.6429C24.7206 13.4781 24.8346 13.2994 24.902 13.1071C24.9694 12.9148 25.002 12.7087 24.9999 12.4888C24.9978 12.269 24.9641 12.0629 24.8988 11.8706C24.8335 11.6782 24.7201 11.4996 24.5585 11.3348L13.9639 0.45339C13.6696 0.151129 13.3015 0 12.8595 0C12.4176 0 12.0366 0.151129 11.7166 0.45339C11.3956 0.783128 11.235 1.17497 11.235 1.62891C11.235 2.08285 11.3956 2.47414 11.7166 2.80278L19.5437 10.8401H1.60524C1.15042 10.8401 0.768913 10.9984 0.460709 11.315C0.152504 11.6315 -0.0010643 12.0228 5.72205e-06 12.4888C0.00107574 12.9549 0.155178 13.3467 0.462313 13.6644C0.769447 13.982 1.15042 14.1397 1.60524 14.1375H19.5437Z" fill="white" fill-opacity="0.7"/>
</svg>
